PathFileType	4	(X/Y/Z)	Patient4_TMGait_0pt3_03_left_17.trc.trc
DataRate	CameraRate	NumFrames	NumMarkers	Units	OrigDataRate	OrigDataStartFrame	OrigNumFrames
411.764705882353	411.764705882353	4	33	mm	411.764705882353	18	       141
Frame#	Time	Sacral			L.Shoulder			Chest			R.Shoulder			Neck			R.ASIS			L.ASIS			R.Thigh.Superior			R.Thigh.Lateral			R.Thigh.Inferior			R.Patella			L.Thigh.Superior			L.Thigh.Lateral			L.Thigh.Inferior			L.Patella			L.Shank.Superior			L.Shank.Lateral			L.Shank.Inferior			R.Shank.Superior			R.Shank.Lateral			R.Shank.Inferior			R.Heel			R.Midfoot.Superior			R.Midfoot.Lateral			R.Toe			L.Heel			L.Midfoot.Lateral			L.Midfoot.Superior			L.Toe			L.Elbow			L.Wrist			R.Elbow			R.Wrist			
		X1	Y1	Z1	X2	Y2	Z2	X3	Y3	Z3	X4	Y4	Z4	X5	Y5	Z5	X6	Y6	Z6	X7	Y7	Z7	X8	Y8	Z8	X9	Y9	Z9	X10	Y10	Z10	X11	Y11	Z11	X12	Y12	Z12	X13	Y13	Z13	X14	Y14	Z14	X15	Y15	Z15	X16	Y16	Z16	X17	Y17	Z17	X18	Y18	Z18	X19	Y19	Z19	X20	Y20	Z20	X21	Y21	Z21	X22	Y22	Z22	X23	Y23	Z23	X24	Y24	Z24	X25	Y25	Z25	X26	Y26	Z26	X27	Y27	Z27	X28	Y28	Z28	X29	Y29	Z29	X30	Y30	Z30	X31	Y31	Z31	X32	Y32	Z32	X33	Y33	Z33	

18	31.221285714286	561.648589148661	1008.987523614137	471.030236571404	785.413485678797	1422.258926725735	293.598040806158	883.239357325489	1340.407162421576	451.438327918974	814.426530956190	1423.080400054140	627.686229029710	777.267245183333	1482.195702381942	457.212339048033	790.577316779040	924.595231788708	581.467040220982	769.540969278148	953.876625548246	310.668981541481	840.647328287318	734.809820758841	542.438361750488	765.447744279729	619.018723397034	595.338225102190	846.178594521218	574.088877053299	512.084661432916	853.232283361548	479.004120667134	515.306023113896	836.115127597389	760.540374247609	331.232866170671	777.323882823030	639.478763203156	250.858665537562	874.937851768954	566.778701522686	310.822455719407	877.984880531089	476.935836085157	299.849004428657	806.118170911305	417.631856166930	290.885424175720	661.966455350348	386.716952075873	242.119716189308	641.336405416472	257.197319639093	292.324018396376	808.682199702888	392.880760216238	517.653753623964	726.061677122328	297.108545465097	579.307179710084	749.540937281092	200.915072252745	509.844187122861	593.017011071722	47.566357293193	482.855452774364	767.980200817094	95.571254474623	510.905718425353	679.388818556011	38.721103619569	552.665437481713	886.743868815369	37.891431967025	534.149719333569	446.822655116208	199.620244359040	328.927089941124	502.830589436046	156.115994965397	246.570186767588	608.659634542190	161.025995045609	267.774465988519	683.198979524846	48.215904397544	234.116994206323	697.247106861521	1079.144224251826	181.858230441547	717.050253853579	820.426447335628	162.953341865645	780.105767943023	1087.516929951213	773.269293694364	925.110580441862	874.589837052701	814.476155913947	
19	31.223714285714	561.392719081050	1008.773156448205	471.273342084264	784.975150460031	1422.192240674384	293.823661882362	882.940285557212	1340.254615409504	451.538040688526	814.313588048805	1422.864619292133	627.881786028557	776.959884755291	1482.052166552374	457.460210102961	790.358931120843	924.424708604914	581.616151392065	769.220224435347	953.785555798508	310.843194593204	840.572467464727	734.685361704193	542.547262585820	765.403960440498	618.805928123608	595.295723616434	846.141935977363	573.937477033203	512.091164434579	853.156770199658	478.808701432599	515.244287999034	836.075863297982	760.746246628328	331.402122264382	777.720747880767	639.613960929639	250.897496534015	875.509745600544	567.153274335636	310.914955776195	878.783313568859	477.275798163552	299.853158753979	806.958348116036	417.841251852243	290.804615960290	662.775869946457	386.871488496795	242.147146765420	642.322890447874	257.279696760644	292.199931989881	808.463365744399	392.680874817477	517.597260435156	725.720377044348	297.026847617420	579.276186653363	749.004017215368	200.809539291399	509.813217460973	592.278248717982	47.560080907348	482.865717491169	767.312548266343	95.580816117911	510.963785747325	678.643724930726	38.731325988339	552.677213883571	885.996400239542	37.892645981255	534.180409277159	447.854759926427	199.450587619413	328.983577850124	503.844985156349	156.170458954215	246.449902480358	609.693207225985	161.135372160245	267.541061280565	684.302457646367	48.473656762148	233.538502052196	695.486536756994	1079.493857275540	181.930741215016	714.199486426971	820.658022432492	163.267479006642	781.219556252719	1087.111071231004	773.363630675979	927.272465857633	874.893030544853	814.515175582500	
20	31.226142857143	561.137860519545	1008.558421706567	471.518712468743	784.532919653448	1422.125497942509	294.046962810885	882.639120990608	1340.100667688676	451.633990758734	814.202680438737	1422.647522465643	628.074597855021	776.647298232209	1481.905735385885	457.704227744348	790.147681370443	924.251747937480	581.759555084178	768.906574400434	953.697745442551	311.002883244110	840.486631797743	734.550616797626	542.643711580153	765.353644689636	618.591869114601	595.254492851239	846.108893027006	573.788604421049	512.072704930195	853.068348770047	478.609396336698	515.168265617060	836.030992872216	760.949093267934	331.557148546897	778.101303647416	639.741355546292	250.928809566934	876.061310505123	567.520982266030	310.997271909140	879.565033979123	477.612670773800	299.850703860985	807.787763213177	418.045274296494	290.722402810483	663.585781392666	386.998331246137	242.158518647511	643.320933338407	257.330892173280	292.068454749231	808.235542411135	392.479208632415	517.527574536547	725.376487760505	296.939570565309	579.237165539460	748.463164485162	200.699941681962	509.772224206857	591.537504780601	47.547178366298	482.874698878181	766.633912588121	95.574594545427	510.992668471370	677.902824878488	38.741220681654	552.695082456639	885.248061399249	37.891329448083	534.206750435273	448.901695559799	199.228315945949	329.018122201543	504.893462380747	156.172540272435	246.312301714776	610.757124229006	161.204709186062	267.302995840603	685.453498166045	48.700654653141	232.976278974591	693.728111264794	1079.851198357607	181.995540099707	711.376182055348	820.901013548557	163.588463604972	782.321461378698	1086.696674219289	773.437904743956	929.441269982117	875.208395761921	814.536918659815	
21	31.228571428571	560.884591783686	1008.344070543959	471.763205778278	784.086641647018	1422.058291308588	294.267376810530	882.335633897151	1339.945387822026	451.725755245523	814.092481457522	1422.428323010596	628.264650226997	776.329235686658	1481.755501488335	457.943310247201	789.947983113186	924.077953662991	581.897910294016	768.597226757367	953.610864038538	311.149252514135	840.387871292327	734.404224798305	542.727917272538	765.293940900443	618.376436594467	595.215624466465	846.074665027019	573.639542299330	512.031294655822	852.966440195846	478.405904339322	515.077330661666	835.980108117675	761.148362804494	331.697973473379	778.464687371026	639.860523249709	250.952061384154	876.590169477993	567.880783812555	311.070464936829	880.330296752398	477.946033746709	299.841052013377	808.605902271147	418.244422107886	290.638963972766	664.395962516972	387.097778148747	242.153270155836	644.329696245410	257.349244846328	291.928853750356	807.998527069496	392.276005468505	517.443888098876	725.030710599882	296.847434002117	579.190951463504	747.918435703709	200.586575163863	509.720586189134	590.794121631101	47.527533706800	482.883325615691	765.942311442036	95.556027001028	510.997177374991	677.165093382586	38.748236793535	552.714636115072	884.500079383229	37.887651826348	534.226899507007	449.967652257754	198.951898289108	329.028680358626	505.976062964359	156.121208032116	246.157010535265	611.851753176545	161.233876576303	267.059224327667	686.652999159784	48.896533363240	232.428613563107	691.972154785136	1080.214951642240	182.052058877630	708.580121528842	821.155094446394	163.915570266009	783.408607287207	1086.271906568144	773.488214487103	931.616476945765	875.536867840976	814.538652429256	
